<svg width="317" height="390" viewBox="0 0 317 390" fill="none" xmlns="http://www.w3.org/2000/svg">
<mask id="mask0_15_3079" style="mask-type:alpha" maskUnits="userSpaceOnUse" x="25" y="0" width="391" height="390">
<mask id="path-1-outside-1_15_3079" maskUnits="userSpaceOnUse" x="24.8264" y="-0.000244141" width="391" height="390" fill="black">
<rect fill="white" x="24.8264" y="-0.000244141" width="391" height="390"/>
<path d="M220.784 97.9366L233.041 0.999756L232.945 98.7022L257.267 4.06193L245.01 100.999L281.014 10.0906L256.693 104.826L303.804 19.0857L267.704 109.994L325.253 30.8559L278.046 116.597L344.979 45.3055L287.526 124.348L362.885 62.0518L295.856 133.247L378.493 80.9033L303.038 143.199L391.612 101.573L308.975 153.917L402.049 123.678L313.475 165.304L409.614 146.931L316.54 177.17L414.21 170.95L318.072 189.228L415.742 195.352L318.072 201.476L414.21 219.754L316.54 213.629L409.614 243.773L313.475 225.495L402.049 267.122L308.975 236.883L391.612 289.227L303.038 247.6L378.493 309.896L295.856 257.457L362.885 328.748L287.526 266.356L344.979 345.494L278.046 274.203L325.253 359.848L267.704 280.71L303.804 371.618L256.693 285.973L281.014 380.613L245.01 289.705L257.267 386.738L232.945 292.002L233.041 389.8L220.784 292.767L208.528 389.8V292.002L184.206 386.738L196.558 289.705L160.554 380.613L184.876 285.973L137.764 371.618L173.864 280.71L116.315 359.848L163.523 274.203L96.4938 345.494L154.043 266.356L78.6834 328.748L145.712 257.457L63.0752 309.896L138.53 247.6L49.9568 289.227L132.594 236.883L39.5194 267.122L128.093 225.495L31.9548 243.773L125.029 213.629L27.3585 219.754L123.497 201.476L25.8264 195.352L123.497 189.228L27.3585 170.95L125.029 177.17L31.9548 146.931L128.093 165.304L39.5194 123.678L132.594 153.917L49.9568 101.573L138.53 143.199L63.0752 80.9033L145.712 133.247L78.6834 62.0518L154.043 124.348L96.4938 45.3055L163.523 116.597L116.315 30.8559L173.864 109.994L137.764 19.0857L184.876 104.826L160.554 10.0906L196.558 100.999L184.206 4.06193L208.528 98.7022V0.999756L220.784 97.9366Z"/>
</mask>
<path d="M220.784 97.9366L233.041 0.999756L232.945 98.7022L257.267 4.06193L245.01 100.999L281.014 10.0906L256.693 104.826L303.804 19.0857L267.704 109.994L325.253 30.8559L278.046 116.597L344.979 45.3055L287.526 124.348L362.885 62.0518L295.856 133.247L378.493 80.9033L303.038 143.199L391.612 101.573L308.975 153.917L402.049 123.678L313.475 165.304L409.614 146.931L316.54 177.17L414.21 170.95L318.072 189.228L415.742 195.352L318.072 201.476L414.21 219.754L316.54 213.629L409.614 243.773L313.475 225.495L402.049 267.122L308.975 236.883L391.612 289.227L303.038 247.6L378.493 309.896L295.856 257.457L362.885 328.748L287.526 266.356L344.979 345.494L278.046 274.203L325.253 359.848L267.704 280.71L303.804 371.618L256.693 285.973L281.014 380.613L245.01 289.705L257.267 386.738L232.945 292.002L233.041 389.8L220.784 292.767L208.528 389.8V292.002L184.206 386.738L196.558 289.705L160.554 380.613L184.876 285.973L137.764 371.618L173.864 280.71L116.315 359.848L163.523 274.203L96.4938 345.494L154.043 266.356L78.6834 328.748L145.712 257.457L63.0752 309.896L138.53 247.6L49.9568 289.227L132.594 236.883L39.5194 267.122L128.093 225.495L31.9548 243.773L125.029 213.629L27.3585 219.754L123.497 201.476L25.8264 195.352L123.497 189.228L27.3585 170.95L125.029 177.17L31.9548 146.931L128.093 165.304L39.5194 123.678L132.594 153.917L49.9568 101.573L138.53 143.199L63.0752 80.9033L145.712 133.247L78.6834 62.0518L154.043 124.348L96.4938 45.3055L163.523 116.597L116.315 30.8559L173.864 109.994L137.764 19.0857L184.876 104.826L160.554 10.0906L196.558 100.999L184.206 4.06193L208.528 98.7022V0.999756L220.784 97.9366Z" stroke="black" stroke-width="1.2" stroke-miterlimit="10" mask="url(#path-1-outside-1_15_3079)"/>
</mask>
<g mask="url(#mask0_15_3079)">
<rect x="-470.633" y="-21.8701" width="691.696" height="421.711" rx="27" fill="black"/>
</g>
<path d="M58.2287 283.057L85.6528 298L58.2287 313.062L43.2264 340.426L28.2242 313.062L0.800032 298L28.2242 283.057L43.2264 255.573L58.2287 283.057Z" fill="#BC8FF1"/>
<path d="M131.061 147.138L180.066 173.839L131.061 200.754L104.253 249.652L77.4449 200.754L28.4398 173.839L77.4449 147.138L104.253 98.0259L131.061 147.138Z" fill="#191A23"/>
</svg>
