<svg width="216" height="238" viewBox="0 0 216 238" fill="none" xmlns="http://www.w3.org/2000/svg">
<path d="M203.1 119.9C203.1 121.267 202.442 122.631 201.125 123.983C199.807 125.337 197.848 126.656 195.298 127.922C190.2 130.454 182.803 132.743 173.639 134.668C155.315 138.517 129.987 140.9 102 140.9C74.0134 140.9 48.6851 138.517 30.361 134.668C21.1965 132.743 13.8 130.454 8.70193 127.922C6.15233 126.656 4.19303 125.337 2.87495 123.983C1.55794 122.631 0.899976 121.267 0.899976 119.9C0.899976 118.533 1.55794 117.169 2.87495 115.817C4.19303 114.464 6.15233 113.144 8.70193 111.878C13.8 109.346 21.1965 107.057 30.361 105.132C48.6851 101.283 74.0134 98.9001 102 98.9001C129.987 98.9001 155.315 101.283 173.639 105.132C182.803 107.057 190.2 109.346 195.298 111.878C197.848 113.144 199.807 114.464 201.125 115.817C202.442 117.169 203.1 118.533 203.1 119.9Z" stroke="black" stroke-width="0.6"/>
<path d="M203.1 134.9C203.1 136.267 202.442 137.631 201.125 138.983C199.807 140.337 197.848 141.656 195.298 142.922C190.2 145.454 182.803 147.743 173.639 149.668C155.315 153.517 129.987 155.9 102 155.9C74.0134 155.9 48.6851 153.517 30.361 149.668C21.1965 147.743 13.8 145.454 8.70193 142.922C6.15233 141.656 4.19303 140.337 2.87495 138.983C1.55794 137.631 0.899976 136.267 0.899976 134.9C0.899976 133.533 1.55794 132.169 2.87495 130.817C4.19303 129.464 6.15233 128.144 8.70193 126.878C13.8 124.346 21.1965 122.057 30.361 120.132C48.6851 116.283 74.0134 113.9 102 113.9C129.987 113.9 155.315 116.283 173.639 120.132C182.803 122.057 190.2 124.346 195.298 126.878C197.848 128.144 199.807 129.464 201.125 130.817C202.442 132.169 203.1 133.533 203.1 134.9Z" stroke="black" stroke-width="0.6"/>
<path d="M203.1 149.9C203.1 151.267 202.442 152.631 201.125 153.983C199.807 155.337 197.848 156.656 195.298 157.922C190.2 160.454 182.803 162.743 173.639 164.668C155.315 168.517 129.987 170.9 102 170.9C74.0134 170.9 48.6851 168.517 30.361 164.668C21.1965 162.743 13.8 160.454 8.70193 157.922C6.15233 156.656 4.19303 155.337 2.87495 153.983C1.55794 152.631 0.899976 151.267 0.899976 149.9C0.899976 148.533 1.55794 147.169 2.87495 145.817C4.19303 144.464 6.15233 143.144 8.70193 141.878C13.8 139.346 21.1965 137.057 30.361 135.132C48.6851 131.283 74.0134 128.9 102 128.9C129.987 128.9 155.315 131.283 173.639 135.132C182.803 137.057 190.2 139.346 195.298 141.878C197.848 143.144 199.807 144.464 201.125 145.817C202.442 147.169 203.1 148.533 203.1 149.9Z" stroke="black" stroke-width="0.6"/>
<path d="M152.006 40.7776L152.106 41.3209L152.507 40.9406L180.787 14.1063L164.005 49.2939L163.767 49.7926L164.314 49.7205L202.966 44.6333L168.706 63.2364L168.221 63.5L168.706 63.7637L202.966 82.3668L164.314 77.2796L163.767 77.2076L164.005 77.7062L180.787 112.894L152.507 86.0595L152.106 85.6793L152.006 86.2225L144.9 124.554L137.794 86.2225L137.693 85.6793L137.293 86.0595L109.013 112.894L125.795 77.7062L126.033 77.2076L125.485 77.2796L86.8341 82.3668L121.094 63.7637L121.579 63.5L121.094 63.2364L86.8341 44.6333L125.485 49.7205L126.033 49.7926L125.795 49.2939L109.013 14.1063L137.293 40.9406L137.693 41.3209L137.794 40.7776L144.9 2.44596L152.006 40.7776Z" stroke="black" stroke-width="0.6"/>
<path d="M166.8 107L177.474 134.036L205.266 125.524L190.783 150.726L214.766 167.148L186.033 171.538L188.147 200.528L166.8 180.8L145.453 200.528L147.567 171.538L118.834 167.148L142.817 150.726L128.334 125.524L156.126 134.036L166.8 107Z" fill="#D9D9D9"/>
<path d="M67.9167 184.461L81.6806 159.2L95.555 184.461L120.761 198.281L95.555 212.1L81.6806 237.361L67.9167 212.1L42.6 198.281L67.9167 184.461Z" fill="#C797FF"/>
<circle cx="92.1" cy="112.7" r="37.2" fill="black" stroke="black" stroke-width="0.6"/>
<ellipse cx="79.8" cy="104.6" rx="6" ry="12" fill="white"/>
<ellipse cx="104.4" cy="104.6" rx="6" ry="12" fill="white"/>
</svg>
