<svg width="54" height="15" viewBox="0 0 54 15" fill="none" xmlns="http://www.w3.org/2000/svg">
<path d="M0.973499 14.2998V0.859803H7.9239C8.2055 0.859803 8.4679 0.911003 8.7111 1.0134C8.9543 1.1158 9.1655 1.263 9.3447 1.455C9.5367 1.6342 9.6839 1.8454 9.7863 2.0886C9.8887 2.3318 9.9399 2.5942 9.9399 2.8758V12.2838C9.9399 12.5654 9.8887 12.8278 9.7863 13.071C9.6839 13.3142 9.5367 13.5254 9.3447 13.7046C9.1655 13.8838 8.9543 14.031 8.7111 14.1462C8.4679 14.2486 8.2055 14.2998 7.9239 14.2998H0.973499ZM4.8903 1.9734V13.1862H6.0231V1.9734H4.8903ZM13.0185 0.859803H16.9353V14.2998H13.0185V0.859803ZM20.673 0.859803H28.2954C28.4746 0.859803 28.6282 0.930203 28.7562 1.071C28.897 1.199 28.9674 1.3526 28.9674 1.5318V4.7766H25.0506V1.9734H23.9178V13.1862H25.0506V7.023H24.4746V5.8902H28.2954C28.4746 5.8902 28.6282 5.9606 28.7562 6.1014C28.897 6.2294 28.9674 6.383 28.9674 6.5622V13.6278C28.9674 13.807 28.897 13.967 28.7562 14.1078C28.6282 14.2358 28.4746 14.2998 28.2954 14.2998H20.673C20.4938 14.2998 20.3338 14.2358 20.193 14.1078C20.065 13.967 20.001 13.807 20.001 13.6278V1.5318C20.001 1.3526 20.065 1.199 20.193 1.071C20.3338 0.930203 20.4938 0.859803 20.673 0.859803ZM32.046 0.859803H35.9628V14.2998H32.046V0.859803ZM39.0285 14.2998V0.859803H45.3645C45.5437 0.859803 45.6973 0.930203 45.8253 1.071C45.9661 1.199 46.0365 1.3526 46.0365 1.5318C46.0365 1.3526 46.1005 1.199 46.2285 1.071C46.3565 0.930203 46.5165 0.859803 46.7085 0.859803H52.3533C52.5453 0.859803 52.7053 0.930203 52.8333 1.071C52.9613 1.199 53.0253 1.3526 53.0253 1.5318V14.2998H49.1085V1.9734H47.9949V14.2998H44.0781V1.9734H42.9453V14.2998H39.0285Z" fill="white"/>
</svg>
