<svg width="362" height="310" viewBox="0 0 362 310" fill="none" xmlns="http://www.w3.org/2000/svg">
<g clip-path="url(#clip0_15_3491)">
<path d="M187.399 260.421L197.96 257.309L194.878 267.9L197.96 278.461L187.399 275.379L176.808 278.461L179.92 267.9L176.808 257.309L187.399 260.421Z" fill="black" stroke="white" stroke-width="0.6" stroke-miterlimit="10"/>
</g>
<g clip-path="url(#clip1_15_3491)">
<path d="M75.7682 208.205L94.6538 218.495L75.7682 228.868L65.4369 247.712L55.1056 228.868L36.22 218.495L55.1056 208.205L65.4369 189.279L75.7682 208.205Z" fill="black" stroke="white" stroke-width="0.6" stroke-miterlimit="10"/>
</g>
<path d="M339.548 234.5C338.408 236.566 336.285 238.061 333.228 238.988C330.169 239.916 326.202 240.266 321.425 240.06C311.873 239.648 299.152 237.014 284.143 232.421C254.131 223.235 215.034 206.23 173.97 183.579C132.907 160.929 97.6668 136.93 73.8872 116.445C61.9955 106.201 52.9823 96.8457 47.5381 88.9858C44.8157 85.0554 42.9957 81.5129 42.1485 78.431C41.3018 75.3506 41.4336 72.7575 42.5734 70.6912C43.7131 68.6249 45.8361 67.1302 48.8933 66.2032C51.952 65.2757 55.9192 64.9254 60.696 65.1314C70.2483 65.5435 82.9693 68.1768 97.9779 72.7704C127.99 81.9562 167.087 98.9616 208.151 121.612C249.215 144.262 284.454 168.261 308.234 188.746C320.126 198.99 329.139 208.345 334.583 216.205C337.306 220.136 339.126 223.678 339.973 226.76C340.819 229.841 340.688 232.434 339.548 234.5Z" stroke="black" stroke-width="0.6"/>
<path d="M327.41 256.504C326.27 258.57 324.147 260.065 321.09 260.992C318.031 261.92 314.064 262.27 309.287 262.064C299.735 261.652 287.014 259.019 272.005 254.425C241.993 245.239 202.896 228.234 161.832 205.583C120.768 182.933 85.5285 158.935 61.7489 138.449C49.8572 128.205 40.844 118.85 35.3998 110.99C32.6774 107.06 30.8573 103.517 30.0102 100.435C29.1635 97.3547 29.2953 94.7617 30.4351 92.6954C31.5748 90.6291 33.6978 89.1344 36.755 88.2073C39.8137 87.2798 43.7809 86.9295 48.5577 87.1356C58.11 87.5477 70.831 90.1809 85.8396 94.7746C115.852 103.96 154.949 120.966 196.013 143.616C237.076 166.267 272.316 190.265 296.096 210.75C307.987 220.994 317.001 230.35 322.445 238.21C325.167 242.14 326.987 245.682 327.834 248.764C328.681 251.845 328.549 254.438 327.41 256.504Z" stroke="black" stroke-width="0.6"/>
<path d="M315.273 278.509C314.133 280.575 312.01 282.07 308.953 282.997C305.894 283.924 301.927 284.275 297.15 284.069C287.598 283.656 274.877 281.023 259.868 276.43C229.856 267.244 190.759 250.238 149.695 227.588C108.631 204.938 73.3914 180.939 49.6118 160.454C37.7201 150.21 28.7069 140.854 23.2627 132.995C20.5403 129.064 18.7203 125.522 17.8732 122.44C17.0265 119.359 17.1582 116.766 18.298 114.7C19.4377 112.634 21.5607 111.139 24.6179 110.212C27.6766 109.284 31.6438 108.934 36.4206 109.14C45.9729 109.552 58.6939 112.186 73.7025 116.779C103.715 125.965 142.812 142.97 183.876 165.621C224.939 188.271 260.179 212.269 283.959 232.755C295.85 242.999 304.864 252.354 310.308 260.214C313.03 264.145 314.85 267.687 315.697 270.769C316.544 273.849 316.412 276.442 315.273 278.509Z" stroke="black" stroke-width="0.6"/>
<circle cx="79.6998" cy="63.6" r="9.3" fill="#C797FF"/>
<circle cx="253.4" cy="261.9" r="6" fill="#C797FF"/>
<circle cx="49.6997" cy="39.6" r="14.1" fill="black"/>
<path d="M184.383 231.054C180.601 232.346 176.278 229.785 174.774 225.343L151.375 156.786L165.048 152.109L188.471 220.76C189.974 225.155 188.142 229.761 184.383 231.054Z" fill="black"/>
<path d="M182.339 231.9C181.235 231.9 180.107 231.641 179.026 231.101C176.842 230.02 175.103 227.998 174.257 225.507L150.858 156.95C150.764 156.692 150.905 156.386 151.187 156.292L164.86 151.615C165.001 151.568 165.142 151.568 165.259 151.639C165.377 151.709 165.471 151.803 165.518 151.944L188.94 220.595C190.515 225.249 188.541 230.161 184.524 231.547C183.842 231.782 183.091 231.9 182.339 231.9ZM152.033 157.115L175.267 225.178C176.019 227.411 177.57 229.244 179.496 230.184C181.047 230.936 182.715 231.077 184.218 230.56C187.695 229.362 189.387 225.037 187.977 220.924L164.719 152.767L152.033 157.115Z" fill="black"/>
<path d="M162.628 92.929L118.39 124.493L101.17 142.378L94.4037 154.341L94.3802 154.435C93.0411 156.503 93.8164 161.274 96.3302 166.14C98.7969 170.934 102.274 174.271 104.717 174.459L104.647 174.506L117.638 175.917L141.954 172.039L193.568 153.566L257.728 164.565L258.174 164.588C242.058 161.58 220.303 140.028 204.493 109.545C188.705 79.0859 183.678 48.9791 190.608 34.1255H190.585L162.98 92.1769L162.628 92.929Z" fill="#C797FF"/>
<path d="M268.837 163.262C284.694 155.024 281.628 117.677 261.989 79.8462C242.35 42.0149 213.575 18.0249 197.719 26.2628C181.863 34.5008 184.929 71.8472 204.567 109.678C224.206 147.51 252.981 171.5 268.837 163.262Z" fill="white"/>
<path d="M261.863 165.411C254.956 165.411 246.64 161.557 237.689 154.059C225.496 143.859 213.538 128.136 204.023 109.757C189.622 81.93 183.678 53.3979 188.894 37.0636C190.632 31.611 193.545 27.8036 197.516 25.7588C205.409 21.7164 216.522 25.1478 228.832 35.4419C241.025 45.642 252.983 61.3653 262.498 79.7443C276.922 107.571 282.866 136.103 277.627 152.438C275.889 157.89 272.976 161.698 269.005 163.743C266.867 164.871 264.471 165.411 261.863 165.411ZM204.704 25.1478C202.285 25.1478 200.029 25.6413 198.009 26.6989C194.274 28.6027 191.548 32.2221 189.904 37.4161C184.759 53.5154 190.679 81.742 204.963 109.334C224.415 146.868 252.936 170.887 268.559 162.873C272.294 160.969 275.019 157.35 276.664 152.156C281.809 136.057 275.889 107.83 261.605 80.2378C244.666 47.5692 220.891 25.1478 204.704 25.1478Z" fill="black"/>
<path d="M261.863 165.411C254.956 165.411 246.64 161.557 237.689 154.059C225.496 143.859 213.538 128.136 204.023 109.757C189.622 81.9297 183.678 53.3976 188.893 37.0633C190.632 31.6107 193.545 27.8033 197.515 25.7585C202.801 23.0322 209.708 23.7138 217.485 27.7093C224.932 31.5402 232.99 38.3324 240.837 47.3339C241.025 47.5454 241.001 47.8745 240.79 48.0625C240.578 48.2505 240.249 48.227 240.062 48.0155C224.133 29.7305 208.017 21.5516 198.009 26.6986C194.273 28.6024 191.548 32.2218 189.904 37.4158C184.759 53.5151 190.679 81.7417 204.963 109.334C221.878 141.979 245.676 164.424 261.84 164.424C264.259 164.424 266.515 163.93 268.535 162.873C272.271 160.969 274.996 157.35 276.64 152.155C281.785 136.056 275.865 107.83 261.581 80.2376C257.329 72.0116 252.536 64.2793 247.391 57.252C247.227 57.017 247.274 56.688 247.509 56.5234C247.744 56.3589 248.073 56.4059 248.237 56.641C253.429 63.7152 258.222 71.4946 262.521 79.7675C276.922 107.571 282.866 136.103 277.627 152.438C275.889 157.89 272.975 161.698 269.005 163.742C266.867 164.87 264.471 165.411 261.863 165.411Z" fill="black"/>
<path d="M232.86 115.103C236.533 113.195 235.827 104.55 231.282 95.7952C226.737 87.0401 220.075 81.4898 216.401 83.3982C212.728 85.3067 213.434 93.9512 217.979 102.706C222.524 111.461 229.186 117.012 232.86 115.103Z" fill="#C797FF"/>
<path d="M231.252 116.009C227.211 116.009 221.573 110.791 217.509 102.918C214.126 96.3842 212.74 89.6624 213.985 85.7845C214.431 84.4214 215.159 83.4577 216.17 82.9407C220.163 80.896 227 86.4661 231.746 95.6086C235.129 102.142 236.515 108.864 235.27 112.742C234.823 114.105 234.095 115.069 233.085 115.586C232.521 115.868 231.91 116.009 231.252 116.009ZM218.002 83.5283C217.509 83.5283 217.039 83.6223 216.639 83.8338C215.864 84.2333 215.3 84.9854 214.948 86.09C213.797 89.7094 215.136 96.1491 218.401 102.448C222.724 110.791 229.232 116.408 232.591 114.669C233.367 114.27 233.93 113.518 234.283 112.413C235.434 108.77 234.071 102.354 230.829 96.0551C227.023 88.7458 221.573 83.5283 218.002 83.5283Z" fill="#C797FF"/>
<path d="M258.293 156.644C252.231 156.644 244.948 153.26 237.102 146.703C226.436 137.772 215.958 123.999 207.641 107.924C195.025 83.5749 189.833 58.5916 194.391 44.2786C195.918 39.484 198.479 36.1467 201.979 34.337C210.014 30.224 221.831 34.9715 234.423 47.3574C234.635 47.5689 234.635 47.8745 234.423 48.086C234.212 48.2975 233.907 48.2975 233.695 48.086C221.432 36.0291 210.038 31.3286 202.449 35.2536C199.207 36.9222 196.834 40.0481 195.378 44.5841C190.891 58.6386 196.059 83.3164 208.558 107.454C223.335 136.009 244.126 155.61 258.269 155.61C260.383 155.61 262.333 155.164 264.119 154.271C267.361 152.602 269.734 149.476 271.19 144.94C275.677 130.886 270.509 106.208 258.011 82.0707C254.228 74.7849 249.999 67.9457 245.442 61.7645C245.277 61.5295 245.324 61.2004 245.559 61.0359C245.794 60.8714 246.123 60.9184 246.287 61.1534C250.892 67.4051 255.144 74.2679 258.95 81.6007C271.566 105.949 276.758 130.933 272.2 145.246C270.673 150.04 268.113 153.378 264.612 155.187C262.686 156.151 260.571 156.644 258.293 156.644Z" fill="black"/>
<path d="M117.663 176.41C117.639 176.41 117.616 176.41 117.616 176.41L104.624 175C104.553 175 104.483 174.977 104.412 174.93C101.734 174.507 98.3511 171.122 95.8844 166.375C93.2531 161.369 92.4779 156.48 93.9109 154.177L93.9344 154.106L100.7 142.12C100.724 142.073 100.747 142.05 100.771 142.026L117.991 124.141C118.015 124.117 118.038 124.094 118.062 124.07L162.182 92.5766L190.092 33.8907C190.162 33.7731 190.256 33.6791 190.397 33.6321C190.538 33.5851 190.679 33.5851 190.797 33.6556C191.055 33.7731 191.173 34.0787 191.055 34.3372C183.984 49.4964 189.575 79.6267 204.94 109.287C220.328 138.994 241.777 160.993 258.292 164.024C258.551 164.071 258.739 164.307 258.715 164.589C258.692 164.847 258.457 165.035 258.198 165.059L257.752 165.035C257.729 165.035 257.705 165.035 257.682 165.035L193.639 154.059L142.142 172.485C142.119 172.485 142.072 172.509 142.048 172.509L117.733 176.387C117.709 176.41 117.686 176.41 117.663 176.41ZM105 174.013L117.663 175.376L141.86 171.498L193.451 153.049C193.545 153.025 193.616 153.002 193.71 153.025L251.362 162.896C235.786 156.057 217.579 135.868 204.07 109.781C190.656 83.8807 184.665 57.5813 187.954 40.9649L163.098 93.1407C163.051 93.2112 163.004 93.2817 162.934 93.3287L118.743 124.893L101.593 142.684L94.8272 154.67C94.8272 154.694 94.8037 154.717 94.8037 154.717C93.582 156.621 94.4043 161.322 96.7771 165.905C99.1029 170.394 102.462 173.778 104.765 173.943C104.859 173.943 104.929 173.966 105 174.013Z" fill="black"/>
<path d="M162.698 92.741L190.584 34.1021H190.608C183.677 48.9557 188.728 79.0625 204.492 109.522C220.303 140.028 242.058 161.58 258.221 164.541L257.775 164.518L193.709 153.542L192.229 153.284C184.781 151.968 174.844 142.284 167.725 128.465C160.419 114.293 159.127 100.168 162.369 93.4461L162.698 92.741Z" fill="white"/>
<path d="M258.221 165.059C258.221 165.059 258.198 165.059 258.221 165.059L257.751 165.035C257.728 165.035 257.704 165.035 257.681 165.035L193.615 154.059L192.135 153.801C184.265 152.414 174.28 142.332 167.256 128.724C159.292 113.259 158.892 99.4863 161.899 93.2346L162.252 92.5295L190.138 33.9141C190.209 33.7966 190.303 33.7026 190.443 33.6556C190.584 33.6086 190.725 33.6086 190.843 33.6791C191.101 33.7966 191.219 34.1021 191.101 34.3606C184.03 49.5198 189.621 79.6501 204.986 109.31C220.374 139.018 241.823 161.016 258.339 164.048C258.597 164.095 258.785 164.33 258.762 164.612C258.691 164.847 258.48 165.059 258.221 165.059ZM187.906 40.9649L163.168 92.9761L162.816 93.6812C159.832 99.8859 160.701 113.752 168.172 128.23C175.055 141.579 184.758 151.451 192.323 152.767L193.803 153.025L251.338 162.896C235.762 156.057 217.555 135.868 204.046 109.78C190.631 83.8806 184.641 57.5812 187.906 40.9649Z" fill="black"/>
<path d="M116.957 176.34C116.934 176.34 116.91 176.34 116.91 176.34L104.6 175.024C104.529 175.024 104.459 175 104.389 174.953C101.71 174.53 98.3273 171.146 95.8605 166.398C93.2528 161.369 92.4775 156.48 93.9106 154.177L93.9341 154.106L100.7 142.12C100.841 141.861 101.146 141.791 101.405 141.932C101.663 142.073 101.734 142.379 101.593 142.637L94.8268 154.67C94.8268 154.694 94.8033 154.717 94.8033 154.717C93.5817 156.621 94.404 161.322 96.7768 165.905C99.1026 170.394 102.462 173.778 104.764 173.943C104.835 173.943 104.929 173.966 104.976 174.013L117.004 175.306C117.286 175.329 117.498 175.588 117.451 175.87C117.427 176.128 117.216 176.34 116.957 176.34Z" fill="black"/>
<path d="M117.779 175.823C113.786 175.541 108.194 169.877 104.13 162.051C99.8306 153.754 98.8204 145.176 101.452 142.12L94.4272 154.342L94.3802 154.436C93.0411 156.504 93.8164 161.275 96.3302 166.14C98.7969 170.935 102.274 174.272 104.717 174.46L104.647 174.507L117.779 175.823Z" fill="white"/>
<path d="M117.78 176.34C117.756 176.34 117.756 176.34 117.733 176.34C117.639 176.34 117.521 176.316 117.427 176.316L104.6 175.024C104.529 175.024 104.459 175 104.389 174.953C101.71 174.53 98.3273 171.146 95.8605 166.398C93.2528 161.369 92.4775 156.48 93.9106 154.177L93.9341 154.107L100.113 143.342C100.348 142.731 100.653 142.191 101.029 141.744C101.193 141.533 101.499 141.509 101.71 141.65C101.922 141.815 101.992 142.097 101.851 142.332L100.982 143.812C99.5959 147.549 100.959 154.882 104.529 161.745C108.406 169.242 113.692 174.718 117.474 175.212L117.756 175.235C118.038 175.259 118.249 175.517 118.226 175.799C118.249 176.128 118.038 176.34 117.78 176.34ZM104.976 174.013L113.95 174.93C110.497 172.721 106.691 168.161 103.66 162.285C100.724 156.621 99.267 150.746 99.502 146.515L94.8268 154.671C94.8268 154.694 94.8033 154.718 94.8033 154.718C93.5817 156.621 94.404 161.322 96.7768 165.905C99.1026 170.394 102.462 173.778 104.764 173.943C104.835 173.943 104.929 173.966 104.976 174.013Z" fill="black"/>
<path d="M141.084 172.133L142.118 171.921C136.527 173.096 127.693 164.635 121.468 152.626C115.101 140.357 113.903 128.112 118.414 124.493L117.826 125.08L101.498 142.049C98.8203 145.058 99.807 153.683 104.13 162.027C108.288 170.064 114.185 175.799 118.202 175.776L141.084 172.133Z" fill="black"/>
<path d="M118.179 176.316C113.903 176.316 107.96 170.558 103.66 162.285C99.2906 153.824 98.1864 144.987 101.1 141.721L117.122 125.081C117.404 124.705 117.733 124.376 118.085 124.094C118.297 123.929 118.602 123.953 118.79 124.141C118.978 124.352 118.978 124.658 118.79 124.846L117.874 125.809C114.608 130.181 116.229 141.368 121.938 152.391C128.093 164.283 136.692 172.438 141.954 171.451L142.025 171.428C142.307 171.381 142.565 171.545 142.635 171.827C142.682 172.109 142.518 172.368 142.236 172.438C142.213 172.438 142.189 172.438 142.166 172.462L141.202 172.65H141.179L118.297 176.293C118.25 176.293 118.203 176.316 118.179 176.316ZM115.759 127.995L101.875 142.426C99.2906 145.34 100.465 153.848 104.6 161.815C108.641 169.618 114.35 175.259 118.179 175.282L138.383 172.062C132.933 170.135 126.214 162.873 121.022 152.884C116.088 143.366 114.185 133.683 115.759 127.995Z" fill="black"/>
<path d="M216.404 83.387C212.716 85.2672 213.256 93.9866 217.955 102.683C225.825 117.231 232.098 115.515 232.826 115.256C232.849 115.256 232.849 115.28 232.826 115.28L219.317 126.162C215.347 120.592 211.565 114.387 208.088 107.689C204.775 101.272 201.979 94.8797 199.771 88.675L216.404 83.387Z" fill="black"/>
<path d="M219.317 126.679C219.294 126.679 219.27 126.679 219.247 126.679C219.106 126.655 218.988 126.585 218.894 126.467C214.83 120.756 211.048 114.504 207.641 107.947C204.376 101.648 201.557 95.2322 199.301 88.8865C199.254 88.7455 199.254 88.6044 199.325 88.4869C199.395 88.3694 199.489 88.2754 199.63 88.2284L216.263 82.9403C216.522 82.8698 216.804 82.9873 216.898 83.2459C216.992 83.5044 216.898 83.7864 216.663 83.9039C215.864 84.3035 215.277 85.1026 214.924 86.2777C213.773 89.9676 215.183 96.5013 218.448 102.494C226.13 116.69 232.051 115.068 232.685 114.833C232.92 114.739 233.202 114.857 233.319 115.068C233.437 115.28 233.39 115.585 233.202 115.75L219.646 126.561C219.552 126.632 219.435 126.679 219.317 126.679ZM200.452 89.004C202.684 95.1382 205.409 101.343 208.557 107.454C211.847 113.799 215.511 119.839 219.435 125.409L231.158 115.961C228.48 115.844 223.429 113.846 217.508 102.918C214.078 96.5953 212.669 89.9206 213.914 85.9016C214.078 85.3846 214.266 84.938 214.501 84.515L200.452 89.004Z" fill="black"/>
<path d="M285.912 49.8585C296.652 44.2163 300.806 30.9696 295.19 20.2712C289.574 9.57276 276.315 5.47392 265.575 11.1161C254.835 16.7584 250.681 30.005 256.297 40.7034C261.912 51.4018 275.172 55.5007 285.912 49.8585Z" fill="black"/>
<path d="M265.74 25.6409C266.774 24.2308 268.301 23.3612 270.039 23.1732C271.355 23.0321 272.577 23.3142 273.728 24.0192C274.315 24.3718 274.832 24.8183 275.325 25.3589C275.678 24.7243 276.101 24.1603 276.594 23.6902C277.557 22.7501 278.708 22.2096 280 22.0685C281.739 21.8805 283.43 22.3976 284.746 23.5492C286.038 24.6773 286.86 26.3225 287.072 28.1792C287.283 30.0829 286.766 31.9161 285.451 33.9373C284.276 35.747 282.491 37.6272 280.423 39.8365C279.718 40.5886 278.92 41.4347 278.097 42.3278C277.886 42.5628 277.581 42.7273 277.252 42.7508C276.923 42.7978 276.617 42.7038 276.335 42.5158C275.325 41.8107 274.362 41.1526 273.516 40.5886C271.026 38.8964 268.865 37.4392 267.314 35.9351C265.576 34.2664 264.683 32.5742 264.471 30.6705C264.283 28.8138 264.73 27.0276 265.74 25.6409Z" fill="white"/>
<path d="M346.841 51.0554C354.703 43.1897 354.703 30.4368 346.841 22.571C338.978 14.7053 326.23 14.7053 318.368 22.571C310.505 30.4368 310.505 43.1897 318.368 51.0554C326.23 58.9212 338.978 58.9212 346.841 51.0554Z" fill="#C797FF"/>
<path d="M332.601 57.464C321.23 57.464 311.95 48.204 311.95 36.8053C311.95 25.43 321.206 16.1465 332.601 16.1465C343.995 16.1465 353.251 25.4065 353.251 36.8053C353.251 48.1805 343.995 57.464 332.601 57.464ZM332.601 17.1806C321.794 17.1806 312.984 25.9706 312.984 36.8053C312.984 47.6165 321.77 56.4299 332.601 56.4299C343.408 56.4299 352.217 47.64 352.217 36.8053C352.217 25.9941 343.431 17.1806 332.601 17.1806Z" fill="#C797FF"/>
<path d="M338.051 38.8027C336.923 38.8027 335.936 39.3433 335.279 40.1893L328.489 37.5336C328.489 37.4395 328.513 37.369 328.513 37.275C328.513 37.1105 328.489 36.946 328.466 36.7815L335.42 33.5616C336.054 34.2902 336.994 34.7602 338.051 34.7838C339.977 34.7838 341.575 33.2091 341.575 31.2584C341.575 29.3076 340.001 27.7095 338.051 27.7095C336.124 27.7095 334.527 29.2841 334.527 31.2349C334.527 31.3994 334.55 31.5639 334.574 31.7284L327.62 34.9483C326.985 34.2197 326.046 33.7496 324.989 33.7261C323.062 33.7261 321.465 35.3008 321.465 37.2515C321.465 39.2022 323.039 40.8004 324.989 40.8004C326.116 40.8004 327.103 40.2599 327.761 39.4138L334.55 42.0696C334.55 42.1636 334.527 42.2341 334.527 42.3281C334.527 44.2788 336.101 45.877 338.051 45.877C339.977 45.877 341.575 44.3023 341.575 42.3516C341.551 40.4009 339.977 38.8262 338.051 38.8027Z" fill="black"/>
<path d="M338.317 114.895C347.537 108.493 349.854 95.8694 343.491 86.6991C337.129 77.5288 324.497 75.2847 315.277 81.6868C306.057 88.0889 303.74 100.713 310.103 109.883C316.465 119.053 329.098 121.298 338.317 114.895Z" fill="black"/>
<path d="M321.724 107.924L318.764 91.8714C318.623 91.0488 319.375 90.3672 320.174 90.5787L337.676 95.5378C338.569 95.7963 338.78 96.9479 338.052 97.512L323.486 108.605C322.852 109.122 321.889 108.77 321.724 107.924Z" fill="white"/>
<path d="M326.599 180.649C337.985 175.104 342.749 161.432 337.24 150.111C331.731 138.791 318.036 134.109 306.65 139.654C295.264 145.199 290.5 158.872 296.009 170.192C301.517 181.512 315.213 186.194 326.599 180.649Z" fill="#C797FF"/>
<path d="M316.508 183.508C314.065 183.508 311.575 183.132 309.155 182.31C303.235 180.335 298.442 176.199 295.67 170.605C292.898 165.035 292.475 158.713 294.472 152.79C298.606 140.592 311.904 133.941 324.144 138.007C330.064 139.981 334.856 144.118 337.629 149.711C340.401 155.282 340.824 161.604 338.827 167.526C335.491 177.303 326.305 183.508 316.508 183.508ZM316.743 137.866C307.369 137.866 298.583 143.789 295.411 153.143C293.508 158.807 293.908 164.847 296.563 170.159C299.217 175.494 303.798 179.466 309.46 181.346C321.16 185.224 333.87 178.878 337.817 167.221C339.719 161.557 339.32 155.517 336.665 150.205C334.011 144.87 329.429 140.898 323.768 139.018C321.442 138.219 319.069 137.866 316.743 137.866Z" fill="black"/>
<path d="M328.303 156.457C328.068 162.168 318.412 175.517 316.11 178.643C315.875 178.972 315.381 178.948 315.17 178.596C313.713 176.246 308.897 168.349 306.383 161.956C305.373 159.418 304.739 157.115 304.809 155.493C305.068 149.006 310.542 143.953 317.026 144.212C323.51 144.517 328.561 149.97 328.303 156.457Z" fill="black"/>
<path d="M320.356 159.796C322.457 157.694 322.457 154.286 320.356 152.184C318.255 150.083 314.848 150.082 312.747 152.184C310.646 154.286 310.646 157.694 312.747 159.796C314.848 161.897 318.255 161.897 320.356 159.796Z" fill="#C797FF"/>
<defs>
<clipPath id="clip0_15_3491">
<rect width="21.6" height="21.6" fill="white" transform="translate(176.6 257.1)"/>
</clipPath>
<clipPath id="clip1_15_3491">
<rect width="42.1955" height="42.1955" fill="white" transform="translate(65.4369 188.7) rotate(45)"/>
</clipPath>
</defs>
</svg>
