<svg width="67" height="42" viewBox="0 0 67 42" fill="none" xmlns="http://www.w3.org/2000/svg">
<path d="M0.966876 28.3002V11.5002H9.65488C10.0069 11.5002 10.3349 11.5642 10.6389 11.6922C10.9429 11.8202 11.2069 12.0042 11.4309 12.2442C11.6709 12.4682 11.8549 12.7322 11.9829 13.0362C12.1109 13.3402 12.1749 13.6682 12.1749 14.0202V25.7802C12.1749 26.1322 12.1109 26.4602 11.9829 26.7642C11.8549 27.0682 11.6709 27.3322 11.4309 27.5562C11.2069 27.7802 10.9429 27.9642 10.6389 28.1082C10.3349 28.2362 10.0069 28.3002 9.65488 28.3002H0.966876ZM5.86288 12.8922V26.9082H7.27888V12.8922H5.86288ZM16.0231 11.5002H20.9191V28.3002H16.0231V11.5002ZM25.5913 11.5002H35.1193C35.3433 11.5002 35.5353 11.5882 35.6953 11.7642C35.8713 11.9242 35.9593 12.1162 35.9593 12.3402V16.3962H31.0633V12.8922H29.6473V26.9082H31.0633V19.2042H30.3433V17.7882H35.1193C35.3433 17.7882 35.5353 17.8762 35.6953 18.0522C35.8713 18.2122 35.9593 18.4042 35.9593 18.6282V27.4602C35.9593 27.6842 35.8713 27.8842 35.6953 28.0602C35.5353 28.2202 35.3433 28.3002 35.1193 28.3002H25.5913C25.3673 28.3002 25.1673 28.2202 24.9913 28.0602C24.8313 27.8842 24.7513 27.6842 24.7513 27.4602V12.3402C24.7513 12.1162 24.8313 11.9242 24.9913 11.7642C25.1673 11.5882 25.3673 11.5002 25.5913 11.5002ZM39.8075 11.5002H44.7035V28.3002H39.8075V11.5002ZM48.5356 28.3002V11.5002H56.4556C56.6796 11.5002 56.8716 11.5882 57.0316 11.7642C57.2076 11.9242 57.2956 12.1162 57.2956 12.3402C57.2956 12.1162 57.3756 11.9242 57.5356 11.7642C57.6956 11.5882 57.8956 11.5002 58.1356 11.5002H65.1916C65.4316 11.5002 65.6316 11.5882 65.7916 11.7642C65.9516 11.9242 66.0316 12.1162 66.0316 12.3402V28.3002H61.1356V12.8922H59.7436V28.3002H54.8476V12.8922H53.4316V28.3002H48.5356Z" fill="black"/>
</svg>
