<svg width="75" height="30" viewBox="0 0 75 30" fill="none" xmlns="http://www.w3.org/2000/svg">
<g style="mix-blend-mode:luminosity" clip-path="url(#clip0_15_3553)">
<path fill-rule="evenodd" clip-rule="evenodd" d="M45.9905 23.4839C41.6825 26.2981 35.4383 27.7997 30.0622 27.7997C22.524 27.7997 15.7377 25.3286 10.6036 21.2187C10.2002 20.8955 10.5616 20.4551 11.0457 20.7068C16.5864 23.5639 23.4372 25.2828 30.514 25.2828C35.2866 25.2828 40.5369 24.4077 45.3645 22.5915C46.0938 22.317 46.7037 23.0148 45.9905 23.4839Z" fill="#FF9900"/>
<path fill-rule="evenodd" clip-rule="evenodd" d="M47.7815 21.6678C47.2329 21.0443 44.1415 21.3732 42.7539 21.5191C42.3312 21.5648 42.2666 21.2388 42.6474 21.0042C45.1096 19.4684 49.1497 19.9117 49.6209 20.4265C50.092 20.9442 49.4983 24.5335 47.1845 26.2467C46.8296 26.5098 46.4907 26.3697 46.6489 26.0207C47.1684 24.871 48.3333 22.2941 47.7815 21.6678Z" fill="#FF9900"/>
<path fill-rule="evenodd" clip-rule="evenodd" d="M42.8509 10.1622V8.66925C42.8509 8.44331 43.0446 8.29172 43.2769 8.29172H50.8183C51.0604 8.29172 51.254 8.44617 51.254 8.66925V9.94768C51.2507 10.1622 51.0474 10.4425 50.686 10.8858L46.7782 15.8308C48.2303 15.7993 49.7631 15.9909 51.0797 16.6487C51.3766 16.7975 51.4573 17.0148 51.4799 17.2293V18.8224C51.4799 19.0397 51.2088 19.2943 50.9248 19.1627C48.6046 18.0845 45.5229 17.9672 42.9574 19.1741C42.6961 19.3 42.4218 19.0483 42.4218 18.8309V17.318C42.4218 17.0749 42.425 16.6602 42.6993 16.2912L47.2267 10.5368H43.2866C43.0446 10.5368 42.8509 10.3853 42.8509 10.1622Z" fill="black"/>
<path fill-rule="evenodd" clip-rule="evenodd" d="M15.341 19.4773H13.0467C12.8272 19.463 12.653 19.3172 12.6368 19.1313V8.69501C12.6368 8.48623 12.8337 8.32034 13.0789 8.32034H15.2184C15.4411 8.32892 15.6185 8.48051 15.6347 8.66927V10.0335H15.6766C16.2349 8.71503 17.2837 8.10012 18.6971 8.10012C20.1331 8.10012 21.0302 8.71503 21.6756 10.0335C22.2306 8.71503 23.4923 8.10012 24.8445 8.10012C25.8061 8.10012 26.8581 8.45191 27.5002 9.24127C28.2263 10.1193 28.0779 11.3949 28.0779 12.5131L28.0746 19.0998C28.0746 19.3086 27.8778 19.4773 27.6326 19.4773H25.3414C25.1123 19.463 24.9284 19.3 24.9284 19.0998V13.5685C24.9284 13.1281 24.9735 12.0298 24.8638 11.6122C24.6928 10.9115 24.1797 10.7142 23.5149 10.7142C22.9599 10.7142 22.379 11.0431 22.1435 11.5693C21.9079 12.0956 21.9305 12.9765 21.9305 13.5685V19.0998C21.9305 19.3086 21.7337 19.4773 21.4884 19.4773H19.1973C18.9649 19.463 18.7842 19.3 18.7842 19.0998L18.781 13.5685C18.781 12.4045 18.9972 10.6913 17.3676 10.6913C15.7186 10.6913 15.7831 12.3616 15.7831 13.5685V19.0998C15.7831 19.3086 15.5863 19.4773 15.341 19.4773Z" fill="black"/>
<path fill-rule="evenodd" clip-rule="evenodd" d="M57.7465 8.10012C61.151 8.10012 62.9936 10.6913 62.9936 13.9861C62.9936 17.1693 60.9574 19.6947 57.7465 19.6947C54.4034 19.6947 52.5834 17.1035 52.5834 13.8745C52.5834 10.6255 54.426 8.10012 57.7465 8.10012ZM57.7659 10.2308C56.075 10.2308 55.9685 12.2729 55.9685 13.5456C55.9685 14.8212 55.9459 17.5439 57.7465 17.5439C59.5246 17.5439 59.6085 15.3474 59.6085 14.0089C59.6085 13.1281 59.5665 12.0756 59.2664 11.2404C59.0083 10.514 58.4952 10.2308 57.7659 10.2308Z" fill="black"/>
<path fill-rule="evenodd" clip-rule="evenodd" d="M67.4082 19.4773H65.1235C64.8944 19.463 64.7104 19.3 64.7104 19.0998L64.7072 8.66069C64.7266 8.46907 64.917 8.32034 65.1493 8.32034H67.2759C67.4759 8.32892 67.6405 8.44905 67.6857 8.61207V10.208H67.7276C68.3698 8.78081 69.2701 8.10012 70.8546 8.10012C71.884 8.10012 72.8876 8.42903 73.5329 9.32993C74.1332 10.1651 74.1332 11.5693 74.1332 12.5789V19.1484C74.1073 19.3315 73.917 19.4773 73.6911 19.4773H71.3902C71.1805 19.463 71.0062 19.3257 70.9836 19.1484V13.4798C70.9836 12.3387 71.1321 10.6684 69.5476 10.6684C68.9894 10.6684 68.4763 11.0002 68.2214 11.5036C67.8987 12.1413 67.8567 12.7763 67.8567 13.4798V19.0998C67.8535 19.3086 67.6534 19.4773 67.4082 19.4773Z" fill="black"/>
<path fill-rule="evenodd" clip-rule="evenodd" d="M36.8391 14.4923C36.8391 15.2845 36.8617 15.9452 36.4099 16.6487C36.0453 17.2207 35.4644 17.5725 34.8223 17.5725C33.9413 17.5725 33.425 16.9776 33.425 16.0996C33.425 14.3664 35.1772 14.0518 36.8391 14.0518V14.4923ZM39.1529 19.4487C39.0012 19.5688 38.7818 19.5774 38.6107 19.4973C37.8492 18.9368 37.7104 18.6765 37.2941 18.1417C36.0356 19.28 35.1417 19.6203 33.5121 19.6203C31.5792 19.6203 30.0786 18.565 30.0786 16.4514C30.0786 14.8012 31.0854 13.6772 32.5247 13.128C33.7703 12.6418 35.5096 12.556 36.8391 12.4216V12.1585C36.8391 11.6751 36.8811 11.1031 36.5584 10.6856C36.2809 10.3109 35.7452 10.1565 35.2708 10.1565C34.3963 10.1565 33.6186 10.554 33.4282 11.3777C33.3895 11.5607 33.2378 11.7409 33.0281 11.7495L30.8047 11.5379C30.6175 11.5007 30.4078 11.3663 30.4626 11.1117C30.9725 8.72073 33.4121 8 35.5935 8C36.71 8 38.1686 8.26312 39.0496 9.01245C40.1661 9.93624 40.0596 11.1689 40.0596 12.5103V15.6792C40.0596 16.6316 40.505 17.0491 40.9245 17.5639C41.0697 17.747 41.1019 17.9672 40.9148 18.1045C40.4469 18.4506 39.6143 19.0941 39.1561 19.4544L39.1529 19.4487Z" fill="black"/>
<path fill-rule="evenodd" clip-rule="evenodd" d="M6.76049 14.4923C6.76049 15.2845 6.78308 15.9452 6.33131 16.6487C5.96666 17.2207 5.38903 17.5725 4.74364 17.5725C3.86268 17.5725 3.34959 16.9776 3.34959 16.0996C3.34959 14.3664 5.10183 14.0518 6.76049 14.0518V14.4923ZM9.07423 19.4487C8.92256 19.5688 8.70312 19.5774 8.53209 19.4973C7.77053 18.9368 7.635 18.6765 7.21549 18.1417C5.95698 19.28 5.06634 19.6203 3.43349 19.6203C1.50376 19.6203 0 18.5649 0 16.4514C0 14.8011 1.01004 13.6772 2.44604 13.128C3.69165 12.6418 5.43098 12.556 6.76049 12.4216V12.1585C6.76049 11.6751 6.80244 11.1031 6.48297 10.6856C6.20223 10.3109 5.66655 10.1565 5.19541 10.1565C4.32091 10.1565 3.53998 10.554 3.34959 11.3777C3.31087 11.5607 3.1592 11.7409 2.95267 11.7495L0.726067 11.5379C0.538903 11.5007 0.332377 11.3663 0.384008 11.1117C0.897096 8.72073 3.33345 8 5.51488 8C6.63141 8 8.09 8.26312 8.97096 9.01245C10.0875 9.93624 9.981 11.1689 9.981 12.5103V15.6792C9.981 16.6316 10.4263 17.0491 10.8458 17.5639C10.9943 17.747 11.0265 17.9672 10.8394 18.1045C10.3715 18.4505 9.53891 19.0941 9.08068 19.4544L9.07423 19.4487Z" fill="black"/>
</g>
<defs>
<clipPath id="clip0_15_3553">
<rect width="74.4677" height="28.8" fill="white" transform="translate(0 0.800049)"/>
</clipPath>
</defs>
</svg>
