<svg width="77" height="30" viewBox="0 0 77 30" fill="none" xmlns="http://www.w3.org/2000/svg">
<g style="mix-blend-mode:luminosity" clip-path="url(#clip0_15_3556)">
<path fill-rule="evenodd" clip-rule="evenodd" d="M75.5546 19.1379C72.4012 23.8763 67.4072 22.5014 65.9073 21.4249C65.269 21.8087 64.1497 22.6501 62.6572 22.5529C59.4786 22.3461 58.3403 18.3203 58.3403 18.3203C58.3632 18.3364 57.3935 18.6169 56.8694 18.6118C56.8627 19.7925 55.7112 22.6127 52.6036 22.5766C49.1165 22.5363 48.4075 17.9318 48.4075 17.9318C48.4075 17.9318 48.0605 18.3588 46.741 18.7842C46.8075 17.8772 46.7589 22.4385 42.5794 22.5056C39.2752 22.5586 38.3833 17.8608 38.3833 17.8608C38.3833 17.8608 37.8101 18.3885 36.6992 18.5715C36.7698 17.6497 36.655 22.5211 32.475 22.5056C29.6502 22.4952 28.6849 19.6117 28.76 19.2115C28.8558 18.7014 27.8053 22.5773 25.0614 22.5169C23.9291 22.4875 23.0849 21.7608 22.5552 20.7921C21.8461 21.5113 20.8165 22.5169 19.6616 22.5169C17.5884 22.5169 16.6745 20.9801 16.8292 16.5907C16.8425 16.0701 16.8001 15.8653 16.2161 15.7874C15.8656 15.7356 15.5067 15.6374 15.1269 15.5857C15.0052 15.9457 13.9728 22.3998 10.4226 22.5223C9.23165 22.5634 8.58041 21.649 8.04559 20.9703C7.22576 21.9316 6.14354 22.5529 4.60182 22.5529C1.99027 22.5529 0.210938 20.6818 0.210938 18.3736C0.210938 16.0654 1.99027 14.1944 4.60182 14.1944C5.06357 14.1944 5.19319 14.2531 5.61503 14.3622C4.74751 7.36178 6.79625 6.26772 8.58844 6.26772C10.3091 6.26772 13.2485 9.80713 9.11243 18.7849C10.0307 21.4628 12.0104 21.3113 12.9617 15.7988C13.1553 14.6783 12.6376 13.1662 13.4429 12.9552C14.9148 12.5695 15.071 13.7267 15.7612 13.9195C16.491 14.1233 16.9169 14.1034 17.6175 14.233C18.8147 14.4402 19.2818 15.0102 19.136 16.2797C18.9608 17.8859 18.6544 20.2238 19.5886 20.5088C20.2623 20.7157 21.4923 19.4775 21.7082 18.8C21.9239 18.1225 21.969 17.8906 21.9882 17.3937C22.0174 16.3316 22.054 15.5531 22.2583 14.7498C22.3458 14.439 22.4455 14.2332 22.8423 14.2191C23.1687 14.2118 23.7658 14.1246 24.0286 14.3059C24.3789 14.5392 24.3351 14.7759 24.2949 15.3989C23.8875 24.2811 27.0231 19.847 27.958 16.2967C27.6251 12.282 27.8536 6.34123 30.6922 6.2416C32.1684 6.18978 32.821 7.23794 32.8928 8.02029C33.0959 10.23 31.9585 13.8902 30.4627 16.3517C29.6078 21.3743 34.2005 22.3674 34.9349 18.3584C33.7333 17.8521 32.4347 15.8025 33.4914 14.8037C34.0844 14.2432 36.5527 15.0485 36.5931 16.8048C37.8038 16.5178 37.9655 15.9119 37.9822 16.0123C37.6494 11.9977 37.9581 6.34128 40.7968 6.24165C42.2729 6.18983 42.9254 7.23799 42.9972 8.02035C43.2002 10.23 42.0629 13.8903 40.5673 16.3518C39.7123 21.3743 44.305 22.3675 45.0393 18.3585C44.1497 18.2063 42.2717 16.0264 43.3552 14.8038C43.9343 14.1505 46.3935 15.5091 46.6689 16.8629C47.8319 16.5712 47.9899 15.9846 48.0066 16.0833C47.6737 12.0688 47.9824 6.41243 50.8211 6.31279C52.2971 6.26098 52.9497 7.30914 53.0214 8.0915C53.2245 10.3011 52.0871 13.9615 50.5913 16.423C49.7365 21.4456 54.3292 22.4385 55.0636 18.4295C53.8411 18.2491 52.1036 15.9474 53.502 14.7699C54.0607 14.2994 56.1956 15.5207 56.6953 16.914C57.3896 16.8903 57.8218 16.678 57.9145 16.6567C56.806 11.9437 57.6312 6.28892 60.6849 6.24172C62.3354 6.21623 63.9489 7.03254 63.2407 11.5163C62.5646 15.7943 60.1345 17.5895 60.1402 17.617C60.2815 18.1295 61.5285 22.4186 64.6687 20.1555C64.5062 19.8293 64.3434 19.4961 64.2525 19.0923C63.732 16.7405 64.7543 14.0841 67.5329 13.6548C69.1249 13.4089 70.6246 14.0958 70.8617 15.6445C71.2518 18.1786 68.67 20.0139 67.6882 20.412C67.2484 20.1906 71.6743 22.7063 74.3009 17.6647C74.4532 17.3769 74.6368 17.4012 74.8747 17.5496C75.0427 17.6544 75.9997 18.4578 75.5546 19.1379ZM6.50149 17.7509C6.36785 17.3968 6.09358 16.6165 5.99659 16.2784C5.46245 15.8668 5.08119 15.7999 4.39558 15.7999C2.87192 15.7999 1.97512 17.0484 1.97512 18.3947C1.97512 19.741 2.95211 20.9897 4.47578 20.9897C5.79621 20.9897 6.80118 20.194 7.10779 19.0676C6.89318 18.6285 6.68029 18.2249 6.50149 17.7509ZM8.55111 8.12077C7.4805 8.12077 7.11733 10.3843 7.18781 12.3153C7.25015 14.0226 7.78841 15.5256 8.06764 16.1991C8.13853 16.2835 8.12536 16.2285 8.18865 16.318C10.0476 12.7082 9.27655 8.12077 8.55111 8.12077ZM30.8451 8.19188C29.4614 8.05123 29.4703 13.16 29.6421 14.3059C30.3607 13.287 31.6091 8.46623 30.8451 8.19188ZM40.9494 8.19188C39.5657 8.05123 39.5747 13.16 39.7465 14.3059C40.4651 13.287 41.7136 8.46623 40.9494 8.19188ZM50.9738 8.26295C49.59 8.1223 49.5989 13.2311 49.7708 14.3771C50.4893 13.3581 51.7378 8.53729 50.9738 8.26295ZM60.8376 7.89282C58.6817 8.27652 59.1837 14.6473 59.5112 15.7646C62.0506 12.6733 62.1029 7.7767 60.8376 7.89282ZM68.9173 15.8541C68.8077 15.4479 68.2596 15.2308 67.8813 15.2843C66.7989 15.4153 65.749 16.6102 66.1554 18.4293C66.2458 18.8345 66.4722 19.2074 66.4685 19.195C68.8911 17.7545 69.097 16.6194 68.9173 15.8541ZM23.2666 12.813C22.9572 12.813 22.6548 12.7318 22.3975 12.5795C22.1403 12.4271 21.9397 12.2107 21.8213 11.9573C21.7028 11.704 21.6718 11.4252 21.7322 11.1563C21.7925 10.8874 21.9415 10.6403 22.1602 10.4464C22.379 10.2525 22.6577 10.1204 22.9611 10.0669C23.2645 10.0134 23.5791 10.0409 23.865 10.1458C24.1508 10.2508 24.3951 10.4285 24.5669 10.6565C24.7388 10.8845 24.8306 11.1525 24.8306 11.4267C24.8306 11.6088 24.7901 11.789 24.7115 11.9572C24.633 12.1254 24.5178 12.2782 24.3725 12.4069C24.2273 12.5356 24.0549 12.6378 23.8652 12.7074C23.6754 12.7771 23.4721 12.813 23.2666 12.813Z" fill="#0D0C22"/>
</g>
<defs>
<clipPath id="clip0_15_3556">
<rect width="75.8217" height="28.8" fill="white" transform="translate(0.210938 0.800049)"/>
</clipPath>
</defs>
</svg>
