<svg width="78" height="30" viewBox="0 0 78 30" fill="none" xmlns="http://www.w3.org/2000/svg">
<g style="mix-blend-mode:luminosity" clip-path="url(#clip0_15_3558)">
<path d="M9.10838 8.66357V14.1162H3.45823V8.66357H0.775757V21.6796H3.45823V16.404H9.10838V21.6796H11.7908V8.66357H9.10838Z" fill="#33475B"/>
<path d="M20.3758 17.4719C20.3758 17.9935 20.142 18.4938 19.7258 18.8626C19.3096 19.2315 18.7452 19.4387 18.1566 19.4387C17.568 19.4387 17.0036 19.2315 16.5874 18.8626C16.1712 18.4938 15.9374 17.9935 15.9374 17.4719V11.8969H13.393V17.4719C13.393 18.5905 13.8944 19.6634 14.7869 20.4544C15.6793 21.2454 16.8898 21.6898 18.152 21.6898C19.4142 21.6898 20.6247 21.2454 21.5172 20.4544C22.4097 19.6634 22.9111 18.5905 22.9111 17.4719V11.8969H20.3758V17.4719Z" fill="#33475B"/>
<path d="M39.2286 12.4715C39.2286 11.3288 40.0816 10.9665 41.0161 10.9665C41.7692 10.9665 42.7641 11.4744 43.4146 12.0906L45.0812 10.3503C44.2492 9.35317 42.5617 8.66359 41.1803 8.66359C38.4203 8.66359 36.4239 10.0963 36.4239 12.4715C36.4239 16.8781 42.5012 15.4803 42.5012 17.9462C42.5012 18.7069 41.6679 19.379 40.7138 19.379C39.2089 19.379 38.7213 18.7267 38.03 18.0371L36.1808 19.7413C37.3636 21.0284 38.8225 21.6819 40.5705 21.6819C43.1925 21.6819 45.302 20.2317 45.302 17.9649C45.302 13.0725 39.2247 14.5926 39.2247 12.4715" fill="#33475B"/>
<path d="M76.8254 19.6002C75.3218 19.6002 74.8947 19.0236 74.8947 18.1406V14.2326H77.2315V12.2523H74.8947V9.63957L72.3147 10.6658V18.6264C72.3147 20.6625 73.8997 21.6887 76.0736 21.6887C76.4145 21.6942 76.7553 21.67 77.0909 21.6165L77.7204 19.5629C77.4365 19.5804 77.1106 19.5978 76.8254 19.5978" fill="#33475B"/>
<path d="M30.0615 11.9626C28.801 11.9626 27.9218 12.2865 27.0714 13.0261V8.74184H24.523V16.6826C24.523 19.6553 26.9479 21.6914 29.6724 21.6914C32.6953 21.6914 35.3541 19.6192 35.3541 16.8282C35.3541 14.0722 32.9069 11.9638 30.0615 11.9638V11.9626ZM30.0457 19.4188C29.4738 19.4188 28.9148 19.2685 28.4393 18.9869C27.9638 18.7053 27.5932 18.3051 27.3743 17.8368C27.1555 17.3686 27.0982 16.8533 27.2098 16.3562C27.3214 15.8591 27.5967 15.4025 28.0011 15.0441C28.4055 14.6857 28.9207 14.4416 29.4816 14.3427C30.0425 14.2439 30.6238 14.2946 31.1522 14.4886C31.6805 14.6825 32.1321 15.011 32.4498 15.4324C32.7675 15.8538 32.9371 16.3493 32.9371 16.8562C32.9371 17.5358 32.6325 18.1876 32.0902 18.6682C31.548 19.1488 30.8125 19.4188 30.0457 19.4188Z" fill="#33475B"/>
<path d="M57.7324 16.7089C57.7324 13.9132 55.0789 11.8456 52.0508 11.8456C49.3262 11.8456 46.9014 13.8818 46.9014 16.8545V24.7999H49.4498V20.5098C50.2988 21.2483 51.1794 21.5733 52.4385 21.5733C55.2839 21.5733 57.7311 19.4661 57.7311 16.7089H57.7324ZM55.3194 16.6809C55.3194 17.1878 55.1498 17.6832 54.8321 18.1047C54.5144 18.5261 54.0628 18.8545 53.5345 19.0485C53.0061 19.2425 52.4248 19.2932 51.8639 19.1943C51.303 19.0955 50.7878 18.8514 50.3834 18.493C49.979 18.1346 49.7036 17.678 49.5921 17.1809C49.4805 16.6838 49.5378 16.1685 49.7566 15.7002C49.9755 15.232 50.3461 14.8317 50.8216 14.5501C51.2971 14.2686 51.8561 14.1183 52.428 14.1183C53.1948 14.1183 53.9303 14.3883 54.4725 14.8688C55.0148 15.3494 55.3194 16.0013 55.3194 16.6809Z" fill="#33475B"/>
<path d="M65.9396 11.8096V9.56382C66.2745 9.4252 66.558 9.20511 66.7572 8.92917C66.9564 8.65324 67.063 8.33283 67.0647 8.00526V7.95284C67.0633 7.49507 66.8575 7.05639 66.4923 6.7327C66.127 6.409 65.6321 6.2266 65.1156 6.22537H65.0564C64.5399 6.2266 64.045 6.409 63.6797 6.7327C63.3145 7.05639 63.1087 7.49507 63.1073 7.95284V8.00526C63.109 8.33283 63.2156 8.65324 63.4148 8.92917C63.6139 9.20511 63.8975 9.4252 64.2324 9.56382V11.8096C63.2696 11.9401 62.3628 12.2937 61.6038 12.8347L54.6459 8.03671C54.6954 7.87843 54.7219 7.7152 54.7248 7.55097C54.7253 7.16554 54.5968 6.78862 54.3557 6.46789C54.1145 6.14716 53.7714 5.89701 53.3698 5.74909C52.9683 5.60117 52.5262 5.5621 52.0996 5.63685C51.6729 5.71159 51.2809 5.89678 50.973 6.16899C50.6651 6.44121 50.4553 6.78823 50.3699 7.16617C50.2846 7.5441 50.3276 7.93598 50.4935 8.29225C50.6595 8.64852 50.9409 8.95318 51.3022 9.1677C51.6635 9.38222 52.0884 9.49696 52.5233 9.49742C52.9053 9.49616 53.2802 9.40577 53.6102 9.23533L60.4511 13.9553C59.835 14.7792 59.5135 15.7486 59.5288 16.737C59.544 17.7253 59.8952 18.6866 60.5366 19.4953L58.4547 21.3404C58.2876 21.2932 58.1136 21.2681 57.9382 21.2659C57.5808 21.2659 57.2314 21.3598 56.9342 21.5358C56.637 21.7118 56.4054 21.9619 56.2686 22.2546C56.1318 22.5473 56.0961 22.8693 56.1658 23.18C56.2355 23.4907 56.4076 23.7761 56.6604 24.0001C56.9131 24.2241 57.2351 24.3766 57.5857 24.4384C57.9362 24.5002 58.2996 24.4685 58.6298 24.3473C58.96 24.226 59.2422 24.0207 59.4408 23.7574C59.6394 23.494 59.7454 23.1843 59.7454 22.8675C59.743 22.7121 59.7146 22.5578 59.6613 22.4097L61.7207 20.5844C62.393 21.0395 63.1738 21.3525 64.0033 21.4994C64.8329 21.6463 65.6894 21.6233 66.5074 21.4321C67.3253 21.241 68.0832 20.8866 68.7232 20.3963C69.3631 19.9059 69.8682 19.2924 70.1998 18.6027C70.5315 17.9129 70.6809 17.1651 70.6367 16.4164C70.5925 15.6676 70.3559 14.9377 69.9449 14.2824C69.5339 13.627 68.9594 13.0636 68.2653 12.635C67.5711 12.2065 66.7757 11.9242 65.9396 11.8096V11.8096ZM65.0867 19.1971C64.5231 19.1971 63.9722 19.049 63.5036 18.7715C63.035 18.494 62.6698 18.0996 62.4542 17.6381C62.2385 17.1767 62.1821 16.6689 62.292 16.179C62.402 15.6892 62.6733 15.2392 63.0718 14.886C63.4703 14.5328 63.978 14.2923 64.5308 14.1948C65.0835 14.0974 65.6564 14.1474 66.1771 14.3386C66.6977 14.5297 67.1427 14.8534 67.4558 15.2687C67.7689 15.684 67.936 16.1722 67.936 16.6717C67.936 17.3415 67.6358 17.9838 67.1015 18.4574C66.5671 18.931 65.8424 19.1971 65.0867 19.1971" fill="#FF7A59"/>
</g>
<defs>
<clipPath id="clip0_15_3558">
<rect width="77.1756" height="28.8" fill="white" transform="translate(0.775757 0.800049)"/>
</clipPath>
</defs>
</svg>
