<svg width="89" height="30" viewBox="0 0 89 30" fill="none" xmlns="http://www.w3.org/2000/svg">
<g style="mix-blend-mode:luminosity" clip-path="url(#clip0_15_3561)">
<path d="M31.1151 21.6651V12.932H31.2906L38.463 21.6651H40.72V8.84048H38.2122V17.5515H38.0366L30.8643 8.84048H28.6072V21.6651H31.1151ZM47.8171 21.863C51.1275 21.863 53.1588 19.9712 53.1588 16.8036C53.1588 13.6579 51.1275 11.7442 47.8171 11.7442C44.5319 11.7442 42.4755 13.6579 42.4755 16.8036C42.5006 19.9712 44.5068 21.863 47.8171 21.863ZM47.8171 20.0152C46.0617 20.0152 45.0585 18.8494 45.0585 16.8036C45.0585 14.7798 46.0617 13.592 47.8171 13.592C49.5726 13.592 50.5757 14.7798 50.5757 16.8036C50.5757 18.8494 49.5726 20.0152 47.8171 20.0152ZM55.4409 9.5664V12.0081H53.6854V13.7679H55.4409V19.0693C55.4409 20.9611 56.444 21.7091 59.002 21.7091C59.4785 21.7091 59.955 21.6651 60.3312 21.5991V19.8833C60.0302 19.9053 59.8296 19.9273 59.4785 19.9273C58.4252 19.9273 57.9487 19.5093 57.9487 18.5414V13.7679H60.3312V12.0081H57.9487V9.5664H55.4409ZM61.8359 21.6651H64.3437V11.9421H61.8359V21.6651ZM63.0898 10.3363C63.9174 10.3363 64.5945 9.74238 64.5945 9.01646C64.5945 8.26854 63.9174 7.67461 63.0898 7.67461C62.2622 7.67461 61.5851 8.26854 61.5851 9.01646C61.5851 9.74238 62.2622 10.3363 63.0898 10.3363ZM71.2151 21.863C74.5254 21.863 76.5568 19.9712 76.5568 16.8036C76.5568 13.6579 74.5254 11.7442 71.2151 11.7442C67.9299 11.7442 65.8735 13.6579 65.8735 16.8036C65.8735 19.9712 67.8797 21.863 71.2151 21.863ZM71.2151 20.0152C69.4596 20.0152 68.4565 18.8494 68.4565 16.8036C68.4565 14.7798 69.4596 13.592 71.2151 13.592C72.9455 13.592 73.9737 14.7798 73.9737 16.8036C73.9486 18.8494 72.9455 20.0152 71.2151 20.0152ZM78.0364 21.6651H80.5442V16.0117C80.5442 14.5818 81.4972 13.6799 82.9768 13.6799C84.5066 13.6799 85.2087 14.4279 85.2087 15.9017V21.6651H87.7166V15.3738C87.7166 13.042 86.3623 11.7442 83.9047 11.7442C82.2495 11.7442 81.1461 12.4041 80.6194 13.504H80.4439V11.9421H78.0113C78.0364 11.9421 78.0364 21.6651 78.0364 21.6651Z" fill="black"/>
<path fill-rule="evenodd" clip-rule="evenodd" d="M4.56152 8.01965C5.29143 8.54153 5.55543 8.50033 6.92206 8.41793L19.7963 7.73124C20.0759 7.73124 19.8429 7.48404 19.7498 7.45657L17.6066 6.09694C17.2028 5.82226 16.6438 5.49265 15.6033 5.57506L3.1483 6.38534C2.69794 6.42654 2.60476 6.63255 2.79111 6.78362L4.56152 8.01965ZM5.33802 10.6702V22.646C5.33802 23.2915 5.6952 23.525 6.51829 23.4838L20.666 22.7559C21.4891 22.7147 21.5823 22.2752 21.5823 21.7533V9.85996C21.5823 9.33808 21.3493 9.04967 20.8524 9.09087L6.06792 9.85996C5.52437 9.90116 5.33802 10.1484 5.33802 10.6702ZM19.2994 11.3157C19.3926 11.6728 19.2994 12.0436 18.8956 12.0848L18.2123 12.2084V21.0529C17.6222 21.3276 17.0786 21.4924 16.6127 21.4924C15.8828 21.4924 15.6964 21.2864 15.1529 20.6821L10.6958 14.4882V20.4761L12.109 20.7508C12.109 20.7508 12.109 21.4786 10.9754 21.4786L7.83833 21.6434C7.74515 21.4786 7.83833 21.0804 8.14893 20.998L8.97201 20.792V12.8814L7.83833 12.799C7.74515 12.4419 7.9781 11.92 8.61482 11.8788L11.9848 11.6728L16.6282 17.9354V12.4007L15.448 12.2771C15.3548 11.8376 15.7275 11.508 16.1779 11.4668L19.2994 11.3157ZM2.1078 5.28665L15.0753 4.4489C16.6593 4.32529 17.0786 4.40769 18.0725 5.05318L22.2035 7.62137C22.8868 8.06085 23.1197 8.18445 23.1197 8.66513V22.7696C23.1197 23.6486 22.7625 24.1704 21.4891 24.2528L6.44064 25.0631C5.47779 25.1043 5.02742 24.9807 4.53046 24.4177L1.47107 20.9156C0.927528 20.2701 0.69458 19.7894 0.69458 19.2263V6.68748C0.69458 5.9596 1.0673 5.36905 2.1078 5.28665Z" fill="black"/>
</g>
<defs>
<clipPath id="clip0_15_3561">
<rect width="87.3303" height="28.8" fill="white" transform="translate(0.69458 0.800049)"/>
</clipPath>
</defs>
</svg>
