<svg width="76" height="30" viewBox="0 0 76 30" fill="none" xmlns="http://www.w3.org/2000/svg">
<g style="mix-blend-mode:luminosity" clip-path="url(#clip0_15_3563)">
<path d="M11.1014 23.6398C9.97089 23.8158 8.82055 23.8685 7.63057 24.009L4.00098 14.5872V24.4134C2.87052 24.5188 1.8392 24.6594 0.768188 24.8V6.80005H3.78294L7.90819 17.0131V6.80005H11.1014V23.6398ZM17.3489 13.3918C18.5786 13.3918 20.4628 13.3391 21.5933 13.3391V16.1515C20.185 16.1515 18.5389 16.1515 17.3489 16.2043V20.388C19.2133 20.2825 21.0776 20.1418 22.9617 20.089V22.7959L14.1755 23.4113V6.80005H22.9617V9.61255H17.3489V13.3918V13.3918ZM34.7625 9.61262H31.4702V22.5501C30.3992 22.5501 29.3282 22.5501 28.297 22.5852V9.61262H25.0047V6.80005H34.7627L34.7625 9.61262V9.61262ZM39.9192 13.1985H44.2628V16.011H39.9192V22.3919H36.8051V6.80005H45.6709V9.61255H39.9192V13.1985V13.1985ZM50.8276 19.9309C52.6325 19.966 54.457 20.0892 56.2223 20.177V22.9543C53.3861 22.796 50.5499 22.638 47.6543 22.5852V6.80005H50.8276V19.9309ZM58.8997 23.1477C59.9112 23.2005 60.9823 23.2533 62.0136 23.3586V6.80005H58.8997V23.1477V23.1477ZM75.9169 6.80005L71.8906 15.3606L75.9169 24.8C74.7268 24.6594 73.5368 24.4661 72.3467 24.2902L70.066 19.0872L67.7457 23.8685C66.5951 23.6926 65.4845 23.6398 64.3344 23.4992L68.42 15.2551L64.7309 6.80005H68.1421L70.2246 11.5286L72.446 6.80005H75.9169V6.80005Z" fill="#D81F26"/>
</g>
<defs>
<clipPath id="clip0_15_3563">
<rect width="75.1447" height="28.8" fill="white" transform="translate(0.768188 0.800049)"/>
</clipPath>
</defs>
</svg>
