<svg width="67" height="30" viewBox="0 0 67 30" fill="none" xmlns="http://www.w3.org/2000/svg">
<g style="mix-blend-mode:luminosity" clip-path="url(#clip0_15_3565)">
<path fill-rule="evenodd" clip-rule="evenodd" d="M54.6162 13.1583C54.8696 13.5457 54.9524 13.9864 54.9798 14.4819L55.0158 15.1423V19.7604L55.0525 20.4215C55.126 21.5011 56.0244 22.2995 57.252 22.3674L57.994 22.4V15.1423L58.0308 14.4819C58.0613 13.992 58.1433 13.5429 58.4006 13.1527C58.6627 12.7526 59.039 12.4206 59.4917 12.19C59.9444 11.9595 60.4576 11.8386 60.9796 11.8395C61.5017 11.8403 62.0144 11.9629 62.4661 12.1948C62.9179 12.4268 63.2928 12.76 63.5533 13.1611C63.8066 13.5484 63.8856 13.9975 63.9161 14.4819L63.9528 15.1402V19.7604L63.9896 20.4215C64.0662 21.5067 64.9576 22.305 66.189 22.3674L66.9311 22.4V14.4819C66.9311 13.0818 66.3037 11.7389 65.1868 10.7487C64.07 9.75848 62.5551 9.20189 60.9754 9.20134C60.1298 9.20055 59.2939 9.35969 58.5233 9.66813C57.7527 9.97657 57.0652 10.4272 56.5068 10.9899C55.9482 10.4274 55.2607 9.9769 54.4902 9.66837C53.7197 9.35984 52.8838 9.20039 52.0383 9.20065C50.8014 9.20065 49.6535 9.53328 48.7027 10.1078C48.1226 9.53397 46.8246 9.20065 46.0795 9.20065V22.4L46.8246 22.3674C48.071 22.2946 48.9717 21.5178 49.0202 20.4215L49.0601 19.7604V15.1423L49.0968 14.4819C49.1281 13.9836 49.2063 13.5457 49.4604 13.1555C49.7227 12.7556 50.0989 12.4237 50.5512 12.1929C51.0036 11.9621 51.5164 11.8405 52.0383 11.8402C52.5607 11.8403 53.0738 11.9622 53.5263 12.1935C53.9787 12.4248 54.3546 12.7576 54.6162 13.1583V13.1583ZM3.63431 22.3681L4.37945 22.4H15.5488L15.5121 21.7416C15.4112 20.6564 14.5441 19.8636 13.3157 19.7929L12.5706 19.7604H5.86974L14.8037 11.8395L14.7669 11.1819C14.7091 10.0856 13.8052 9.29351 12.5706 9.23322L11.8254 9.20342L0.656067 9.20065L0.692816 9.86106C0.790553 10.9359 1.67018 11.7453 2.88838 11.8077L3.63431 11.8402H10.3351L1.40121 19.7611L1.43796 20.4215C1.51146 21.5095 2.39735 22.2974 3.63431 22.3674V22.3681ZM43.156 11.1327C43.8476 11.7455 44.3962 12.4731 44.7705 13.2738C45.1448 14.0746 45.3374 14.9329 45.3374 15.7996C45.3374 16.6664 45.1448 17.5246 44.7705 18.3254C44.3962 19.1261 43.8476 19.8537 43.156 20.4665C41.7587 21.7039 39.8643 22.3989 37.8891 22.3989C35.9139 22.3989 34.0195 21.7039 32.6223 20.4665C29.7144 17.8893 29.7144 13.7099 32.6223 11.1327C33.3132 10.5201 34.1336 10.0341 35.0365 9.70246C35.9394 9.37084 36.9071 9.20009 37.8844 9.19995C38.8634 9.19935 39.8328 9.3698 40.7374 9.70156C41.6419 10.0333 42.4638 10.5199 43.156 11.1334V11.1327ZM41.0488 13.0017C41.8863 13.7446 42.3568 14.7518 42.3568 15.802C42.3568 16.8522 41.8863 17.8595 41.0488 18.6024C40.2106 19.3447 39.0741 19.7617 37.8891 19.7617C36.7042 19.7617 35.5677 19.3447 34.7295 18.6024C33.8919 17.8595 33.4214 16.8522 33.4214 15.802C33.4214 14.7518 33.8919 13.7446 34.7295 13.0017C35.5677 12.2593 36.7042 11.8423 37.8891 11.8423C39.0741 11.8423 40.2106 12.2593 41.0488 13.0017V13.0017ZM22.2559 9.19995C23.2333 9.20018 24.2011 9.37104 25.104 9.70278C26.0069 10.0345 26.8272 10.5206 27.5181 11.1334C30.4267 13.7099 30.4267 17.89 27.5181 20.4665C26.1208 21.7039 24.2264 22.3989 22.2512 22.3989C20.276 22.3989 18.3816 21.7039 16.9844 20.4665C14.0765 17.8893 14.0765 13.7099 16.9844 11.1327C17.6753 10.5201 18.4957 10.0341 19.3986 9.70246C20.3015 9.37084 21.2692 9.20009 22.2465 9.19995H22.2559ZM25.4109 13.0003C26.2487 13.7432 26.7193 14.7506 26.7193 15.801C26.7193 16.8514 26.2487 17.8588 25.4109 18.6017C24.5727 19.344 23.4362 19.761 22.2512 19.761C21.0663 19.761 19.9298 19.344 19.0916 18.6017C18.254 17.8588 17.7835 16.8516 17.7835 15.8013C17.7835 14.7511 18.254 13.7439 19.0916 13.001C19.9298 12.2586 21.0663 11.8417 22.2512 11.8417C23.4362 11.8417 24.5727 12.2586 25.4109 13.001V13.0003Z" fill="#2D8CFF"/>
</g>
<defs>
<clipPath id="clip0_15_3565">
<rect width="66.3439" height="28.8" fill="white" transform="translate(0.656067 0.800049)"/>
</clipPath>
</defs>
</svg>
